<?xml version="1.0" encoding="UTF-8"?>
<svg width="18px" height="18px" viewBox="0 0 18 18" version="1.1" xmlns="http://www.w3.org/2000/svg" xmlns:xlink="http://www.w3.org/1999/xlink">
    <!-- Generator: Sketch 46.2 (44496) - http://www.bohemiancoding.com/sketch -->
    <title>Combined Shape</title>
    <desc>Created with Sketch.</desc>
    <defs></defs>
    <g id="Page-1" stroke="none" stroke-width="1" fill="none" fill-rule="evenodd" opacity="0.300000012">
        <g id="Artboard" transform="translate(-547.000000, -168.000000)" fill="#FFFFFF">
            <path d="M557.287454,175.532352 L557.287454,167.037454 C557.287454,166.276653 556.670703,165.659903 555.909903,165.659903 C555.149102,165.659903 554.532352,166.276653 554.532352,167.037454 L554.532352,167.037454 L554.532352,175.532352 L546.037454,175.532352 L546.037454,175.532352 C545.276653,175.532352 544.659903,176.149102 544.659903,176.909903 L544.659903,176.909903 C544.659903,177.670703 545.276653,178.287454 546.037454,178.287454 L554.532352,178.287454 L554.532352,186.782352 C554.532352,187.543152 555.149102,188.159903 555.909903,188.159903 L555.909903,188.159903 C556.670703,188.159903 557.287454,187.543152 557.287454,186.782352 L557.287454,186.782352 L557.287454,178.287454 L565.782352,178.287454 C566.543152,178.287454 567.159903,177.670703 567.159903,176.909903 C567.159903,176.149102 566.543152,175.532352 565.782352,175.532352 L557.287454,175.532352 Z" id="Combined-Shape" transform="translate(555.909903, 176.909903) rotate(-45.000000) translate(-555.909903, -176.909903) "></path>
        </g>
    </g>
</svg>