<?xml version="1.0" encoding="UTF-8"?>
<svg width="23px" height="33px" viewBox="0 0 23 33" version="1.1" xmlns="http://www.w3.org/2000/svg" xmlns:xlink="http://www.w3.org/1999/xlink">
    <!-- Generator: Sketch 44.1 (41455) - http://www.bohemiancoding.com/sketch -->
    <title>sprite-place</title>
    <desc>Created with Sketch.</desc>
    <defs></defs>
    <g id="Symbols" stroke="none" stroke-width="1" fill="none" fill-rule="evenodd">
        <g id="sprite-place" fill-rule="nonzero" fill="#DAB985">
            <g id="Group">
                <path d="M11.49885,0.1995 C5.21486667,0.1995 0.103116667,5.200875 0.103116667,11.349 C0.103116667,13.25475 0.604133333,15.136875 1.57396667,16.828875 L11.49885,32.8005 L21.4425167,16.794 C22.3935667,15.135 22.8965,13.25175 22.8965,11.349 C22.8965,5.200875 17.7851333,0.1995 11.49885,0.1995 Z M19.3054333,15.574125 L11.49885,28.1385 L3.71143333,15.607875 C2.97006667,14.314125 2.5783,12.841875 2.5783,11.349 C2.5783,6.53625 6.57991667,2.62125 11.49885,2.62125 C16.4181667,2.62125 20.4217,6.53625 20.4217,11.349 C20.4217,12.8385 20.0287833,14.313 19.3054333,15.574125 Z" id="Shape"></path>
                <path d="M11.49885,5.889 C8.42068333,5.889 5.91751667,8.3385 5.91751667,11.349 C5.91751667,14.359875 8.4203,16.80975 11.49885,16.80975 C14.5781667,16.80975 17.0790333,14.359875 17.0790333,11.349 C17.0790333,8.3385 14.5781667,5.889 11.49885,5.889 Z M11.49885,14.388375 C9.78573333,14.388375 8.39308333,13.0245 8.39308333,11.349 C8.39308333,9.6735 9.78573333,8.31075 11.49885,8.31075 C13.2104333,8.31075 14.60385,9.6735 14.60385,11.349 C14.60385,13.0245 13.2104333,14.388375 11.49885,14.388375 Z" id="Shape"></path>
            </g>
        </g>
    </g>
</svg>