<?xml version="1.0" encoding="UTF-8"?>
<svg width="28px" height="27px" viewBox="0 0 28 27" version="1.1" xmlns="http://www.w3.org/2000/svg" xmlns:xlink="http://www.w3.org/1999/xlink">
    <!-- Generator: Sketch 44.1 (41455) - http://www.bohemiancoding.com/sketch -->
    <title>sprite-price</title>
    <desc>Created with Sketch.</desc>
    <defs></defs>
    <g id="Symbols" stroke="none" stroke-width="1" fill="none" fill-rule="evenodd">
        <g id="sprite-price" fill-rule="nonzero" fill="#DAB985">
            <g id="noun_526179_cc">
                <path d="M25.6136364,8.00581395 L25.6136364,2.51162791 C25.6136364,1.21123256 24.5451818,0.156976744 23.2272727,0.156976744 L2.54545455,0.156976744 C1.22754545,0.156976744 0.159090909,1.21123256 0.159090909,2.51162791 L0.159090909,24.4883721 C0.159090909,25.7887674 1.22754545,26.8430233 2.54545455,26.8430233 L23.2272727,26.8430233 C24.5451818,26.8430233 25.6136364,25.7887674 25.6136364,24.4883721 L25.6136364,18.994186 C26.9315455,18.994186 28,17.9399302 28,16.6395349 L28,10.3604651 C28,9.06006977 26.9315455,8.00581395 25.6136364,8.00581395 Z M23.2272727,24.4883721 L2.54545455,24.4883721 L2.54545455,2.51162791 L23.2272727,2.51162791 L23.2272727,8.00581395 L17.6590909,8.00581395 C16.3411818,8.00581395 15.2727273,9.06006977 15.2727273,10.3604651 L15.2727273,16.6395349 C15.2727273,17.9399302 16.3411818,18.994186 17.6590909,18.994186 L23.2272727,18.994186 L23.2272727,24.4883721 Z M25.6136364,16.6395349 L17.6590909,16.6395349 L17.6590909,10.3604651 L25.6136364,10.3604651 L25.6136364,16.6395349 Z" id="Shape"></path>
                <ellipse id="Oval" cx="20.8409091" cy="13.5" rx="1.59090909" ry="1.56976744"></ellipse>
                <rect id="Rectangle-path" x="18.4545455" y="4.08139535" width="3.18181818" height="1.56976744"></rect>
                <rect id="Rectangle-path" x="13.6818182" y="4.08139535" width="3.18181818" height="1.56976744"></rect>
                <rect id="Rectangle-path" x="8.90909091" y="4.08139535" width="3.18181818" height="1.56976744"></rect>
                <rect id="Rectangle-path" x="4.13636364" y="4.08139535" width="3.18181818" height="1.56976744"></rect>
                <rect id="Rectangle-path" x="18.4545455" y="21.3488372" width="3.18181818" height="1.56976744"></rect>
                <rect id="Rectangle-path" x="13.6818182" y="21.3488372" width="3.18181818" height="1.56976744"></rect>
                <rect id="Rectangle-path" x="8.90909091" y="21.3488372" width="3.18181818" height="1.56976744"></rect>
                <rect id="Rectangle-path" x="4.13636364" y="21.3488372" width="3.18181818" height="1.56976744"></rect>
                <path d="M10.5,14.2848837 C12.2544545,14.2848837 13.6818182,12.8764884 13.6818182,11.1453488 C13.6818182,9.4142093 12.2544545,8.00581395 10.5,8.00581395 L5.72727273,8.00581395 L5.72727273,12.7151163 L4.13636364,12.7151163 L4.13636364,14.2848837 L5.72727273,14.2848837 L5.72727273,15.8546512 L4.13636364,15.8546512 L4.13636364,17.4244186 L5.72727273,17.4244186 L5.72727273,18.994186 L7.31818182,18.994186 L7.31818182,17.4244186 L12.0909091,17.4244186 L12.0909091,15.8546512 L7.31818182,15.8546512 L7.31818182,14.2848837 L10.5,14.2848837 Z M7.31818182,9.5755814 L10.5,9.5755814 C11.3772273,9.5755814 12.0909091,10.2797791 12.0909091,11.1453488 C12.0909091,12.0109186 11.3772273,12.7151163 10.5,12.7151163 L7.31818182,12.7151163 L7.31818182,9.5755814 Z" id="Shape"></path>
            </g>
        </g>
    </g>
</svg>