<?xml version="1.0" encoding="UTF-8"?>
<svg width="29px" height="27px" viewBox="0 0 29 27" version="1.1" xmlns="http://www.w3.org/2000/svg" xmlns:xlink="http://www.w3.org/1999/xlink">
    <!-- Generator: Sketch 44.1 (41455) - http://www.bohemiancoding.com/sketch -->
    <title>sprite-phone</title>
    <desc>Created with Sketch.</desc>
    <defs></defs>
    <g id="Symbols" stroke="none" stroke-width="1" fill="none" fill-rule="evenodd">
        <g id="sprite-phone" fill-rule="nonzero" fill="#DAB985">
            <path d="M20.2733779,26.9528255 C19.7746291,26.9528255 19.3255802,26.8979818 18.9370812,26.7893493 L18.7617316,26.7397791 C16.8885363,26.2180617 11.9136486,24.8307995 8.49520703,21.6312371 C4.9514658,18.3114406 2.26242246,14.9687926 1.11897529,12.4586426 C-0.176021504,9.61415744 -0.0167718985,7.88623203 0.0357279716,7.31845999 C0.159977664,6.00643199 0.704926315,2.79561963 3.09087041,1.26105311 C3.54971927,0.969960082 4.21541763,0.624375 4.80656616,0.624375 L7.04271063,0.641953081 C7.59220927,0.737577845 8.36955734,1.15734243 8.74545641,2.02605122 C8.9939558,2.5906592 10.7191015,6.65611788 10.8447512,6.97287491 C11.3225,8.10877054 11.2448002,9.11529148 10.6057018,9.9470863 C10.1944528,10.4800537 9.44755468,11.3582547 9.10210553,11.7614959 C9.50040455,12.3985255 10.6995016,14.2192632 12.2289978,15.5945723 C13.8550938,17.0570687 15.8647888,18.1384723 16.7723365,18.439409 C16.8377864,18.4608543 16.8902863,18.4752683 16.9298362,18.4826511 C16.9634361,18.439409 16.996686,18.3912451 17.0316859,18.3437843 L17.1387856,18.2045659 C17.5528346,17.6684344 18.8352314,16.0417587 18.8352314,16.0417587 C19.0704309,15.6877362 19.7077793,15.1948467 20.5614272,15.1948467 C20.9086263,15.1948467 21.2607254,15.276409 21.6079246,15.4346118 C22.3982226,15.7977749 25.9388139,17.5200754 26.6045122,17.8428089 C27.2495606,18.042496 27.893209,18.6380414 27.9457089,19.5963984 L27.9600589,19.777101 C28.0269087,20.5420991 28.2085582,22.5709613 26.4739625,24.4504098 C24.9623163,26.0932573 22.2102731,26.9528255 20.2733779,26.9528255 Z M4.80621616,3.08179079 C4.83001611,3.09620482 4.55736678,3.23682947 4.40476716,3.3345636 C2.88822091,4.30874088 2.54312177,6.8062347 2.47242194,7.54697505 C2.43427203,7.95162249 2.32122231,9.18876786 3.34391978,11.4363014 C4.34386731,13.6311006 6.894311,16.7701944 10.1640029,19.8326478 C13.1445955,22.6226409 17.7005342,23.8935362 19.41623,24.3713084 L19.5961296,24.4208786 C19.7158293,24.4546285 19.9289787,24.4950581 20.2733779,24.4950581 C21.6320745,24.4950581 23.7044194,23.8408019 24.679167,22.7811952 C25.6476146,21.7300259 25.5839147,20.6918644 25.5282649,20.0485066 C24.8559165,19.7222574 21.5221748,18.1019099 20.647877,17.6955046 C20.2863278,18.159566 19.40083,19.2856179 19.0707809,19.7096012 C18.5548821,20.4011229 17.6994843,21.3320581 16.0079384,20.7737783 C14.6786417,20.3322168 12.3945474,19.0426888 10.5962518,17.4251537 C8.60195677,15.6304316 7.15751034,13.2862187 6.88661101,12.8351651 C6.26396256,11.8114176 6.59681173,10.7841545 7.17151031,10.2624371 C7.16346033,10.259273 8.17495783,9.08329938 8.6702066,8.44345721 C8.72445647,8.37490269 8.72935645,8.25959048 8.58445681,7.91365383 C8.45180714,7.58248278 6.86386107,3.83694517 6.53451189,3.08214235 L4.80621616,3.08214235 L4.80621616,3.08179079 Z" id="Shape"></path>
        </g>
    </g>
</svg>