<?xml version="1.0" encoding="UTF-8"?>
<svg width="43px" height="31px" viewBox="0 0 43 31" version="1.1" xmlns="http://www.w3.org/2000/svg" xmlns:xlink="http://www.w3.org/1999/xlink">
    <!-- Generator: Sketch 44.1 (41455) - http://www.bohemiancoding.com/sketch -->
    <title>sprite-category-3</title>
    <desc>Created with Sketch.</desc>
    <defs></defs>
    <g id="Symbols" stroke="none" stroke-width="1" fill="none" fill-rule="evenodd">
        <g id="sprite-category-3" fill-rule="nonzero" fill="#C6AD82">
            <g id="noun_826807_cc">
                <path d="M42.804809,30.8706719 L0.402460674,30.8706719 L0.402460674,25.5367344 L42.8043258,25.5367344 L42.8043258,30.8706719 L42.804809,30.8706719 Z M1.90794382,29.3613594 L41.299809,29.3613594 L41.299809,27.0460469 L1.90794382,27.0460469 L1.90794382,29.3613594 Z" id="Shape"></path>
                <rect id="Rectangle-path" x="1.15568539" y="17.35225" width="40.8968652" height="1.50882813"></rect>
                <rect id="Rectangle-path" x="1.15568539" y="9.8056875" width="40.8968652" height="1.5093125"></rect>
                <polygon id="Shape" points="38.0419551 26.7152188 22.5228202 3.76892188 1.15568539 3.76892188 1.15568539 2.25960938 23.3200112 2.25960938 39.2879888 25.8675625"></polygon>
                <rect id="Rectangle-path" x="39.7938427" y="10.5603437" width="1.50596629" height="15.7310469"></rect>
                <rect id="Rectangle-path" x="1.90794382" y="3.01426562" width="1.50548315" height="23.2776094"></rect>
                <rect id="Rectangle-path" x="7.1128764" y="6.41748437" width="1.50548315" height="4.14334375"></rect>
                <rect id="Rectangle-path" x="13.1343258" y="6.41748437" width="1.50548315" height="4.14334375"></rect>
                <rect id="Rectangle-path" x="19.1562584" y="6.41748437" width="1.50548315" height="4.14334375"></rect>
                <rect id="Rectangle-path" x="7.1128764" y="13.9640469" width="1.50548315" height="4.14285937"></rect>
                <rect id="Rectangle-path" x="13.1343258" y="13.9640469" width="1.50548315" height="4.14285937"></rect>
                <rect id="Rectangle-path" x="19.1562584" y="13.9640469" width="1.50548315" height="4.14285937"></rect>
                <rect id="Rectangle-path" x="7.1128764" y="13.9640469" width="1.50548315" height="4.14285937"></rect>
                <rect id="Rectangle-path" x="13.1343258" y="13.9640469" width="1.50548315" height="4.14285937"></rect>
                <rect id="Rectangle-path" x="19.1562584" y="13.9640469" width="1.50548315" height="4.14285937"></rect>
                <rect id="Rectangle-path" x="7.1128764" y="22.1480469" width="1.50548315" height="4.14382812"></rect>
                <rect id="Rectangle-path" x="13.1343258" y="22.1480469" width="1.50548315" height="4.14382812"></rect>
                <rect id="Rectangle-path" x="19.1562584" y="22.1480469" width="1.50548315" height="4.14382812"></rect>
                <rect id="Rectangle-path" x="7.1128764" y="22.1480469" width="1.50548315" height="4.14382812"></rect>
                <rect id="Rectangle-path" x="13.1343258" y="22.1480469" width="1.50548315" height="4.14382812"></rect>
                <rect id="Rectangle-path" x="19.1562584" y="22.1480469" width="1.50548315" height="4.14382812"></rect>
                <rect id="Rectangle-path" x="25.1777079" y="13.9640469" width="1.50548315" height="4.14285937"></rect>
                <rect id="Rectangle-path" x="35.7160899" y="13.9640469" width="1.50548315" height="4.14285937"></rect>
                <rect id="Rectangle-path" x="25.1777079" y="22.1480469" width="1.50548315" height="4.14382812"></rect>
                <rect id="Rectangle-path" x="25.1777079" y="22.1480469" width="1.50548315" height="4.14382812"></rect>
                <rect id="Rectangle-path" x="31.1996404" y="22.1480469" width="1.50548315" height="4.14382812"></rect>
                <rect id="Rectangle-path" x="31.1996404" y="22.1480469" width="1.50548315" height="4.14382812"></rect>
                <rect id="Rectangle-path" x="1.15568539" y="0.12884375" width="22.1406517" height="1.5093125"></rect>
            </g>
        </g>
    </g>
</svg>