<?xml version="1.0" encoding="UTF-8"?>
<svg width="50px" height="35px" viewBox="0 0 50 35" version="1.1" xmlns="http://www.w3.org/2000/svg" xmlns:xlink="http://www.w3.org/1999/xlink">
    <!-- Generator: Sketch 44.1 (41455) - http://www.bohemiancoding.com/sketch -->
    <title>sprite-category-1</title>
    <desc>Created with Sketch.</desc>
    <defs></defs>
    <g id="Symbols" stroke="none" stroke-width="1" fill="none" fill-rule="evenodd">
        <g id="sprite-category-1" fill-rule="nonzero" fill="#DDBC88">
            <path d="M14.7058824,35 L0,35 L0,24.7916667 L14.7058824,24.7916667 L14.7058824,11.6666667 L10.2941176,11.6666667 L16.1764706,4.375 L33.8235294,4.375 L33.8235294,0 L38.2352941,0 L38.2352941,4.375 L44.1176471,4.375 L50,11.6666667 L45.5882353,11.6666667 L45.5882353,35 L14.7058824,35 Z M16.1764706,13.125 L44.1176471,13.125 L44.1176471,11.6666667 L16.1764706,11.6666667 L16.1764706,13.125 Z M17.6470588,5.83333333 L13.2352941,10.2083333 L47.0588235,10.2083333 L42.6470588,5.83333333 L17.6470588,5.83333333 Z M16.1764706,33.5416667 L26.4705882,33.5416667 L26.4705882,32.0833333 L16.1764706,32.0833333 L16.1764706,33.5416667 Z M44.1176471,14.5833333 L16.1764706,14.5833333 L16.1764706,30.6352083 L26.4705882,30.625 L26.4705882,24.7916667 L33.8235294,24.7916667 L33.8235294,30.625 L44.1176471,30.625 L44.1176471,14.5833333 Z M44.1176471,33.5416667 L44.1176471,32.0833333 L33.8235294,32.0833333 L33.8235294,33.5416667 L44.1176471,33.5416667 Z M32.3529412,33.5416667 L32.3529412,26.25 L27.9411765,26.25 L27.9411765,33.5416667 L32.3529412,33.5416667 Z M17.6470588,23.3333333 L25,23.3333333 L25,29.1666667 L17.6470588,29.1666667 L17.6470588,23.3333333 Z M19.1176471,24.7916667 L19.1176471,27.7083333 L23.5294118,27.7083333 L23.5294118,24.7916667 L19.1176471,24.7916667 Z M35.2941176,23.3333333 L42.6470588,23.3333333 L42.6470588,29.1666667 L35.2941176,29.1666667 L35.2941176,23.3333333 Z M36.7647059,24.7916667 L36.7647059,27.7083333 L41.1764706,27.7083333 L41.1764706,24.7916667 L36.7647059,24.7916667 Z M35.2941176,1.45833333 L35.2941176,4.375 L36.7647059,4.375 L36.7647059,1.45833333 L35.2941176,1.45833333 Z M14.7058824,33.5416667 L14.7058824,26.2616667 L1.47058824,26.25 L1.47058824,33.5416667 L2.94117647,33.5416667 L2.94117647,27.7083333 L13.2352941,27.72 L13.2352941,33.5416667 L14.7058824,33.5416667 Z M11.7647059,32.0833333 L4.41176471,32.0833333 L4.41176471,33.5416667 L11.7647059,33.5416667 L11.7647059,32.0833333 Z M11.7647059,30.625 L11.7647059,29.1666667 L4.41176471,29.1666667 L4.41176471,30.625 L11.7647059,30.625 Z M17.6470588,16.0416667 L29.4117647,16.0416667 L29.4117647,21.875 L17.6470588,21.875 L17.6470588,16.0416667 Z M19.1176471,17.5 L19.1176471,20.4166667 L27.9411765,20.4166667 L27.9411765,17.5 L19.1176471,17.5 Z M30.8823529,16.0416667 L42.6470588,16.0416667 L42.6470588,21.875 L30.8823529,21.875 L30.8823529,16.0416667 Z M32.3529412,17.5 L32.3529412,20.4166667 L41.1764706,20.4166667 L41.1764706,17.5 L32.3529412,17.5 Z" id="Shape"></path>
        </g>
    </g>
</svg>