<?xml version="1.0" encoding="UTF-8"?><svg width="99" height="98" viewBox="0 0 99 98" xmlns="http://www.w3.org/2000/svg" xmlns:xlink="http://www.w3.org/1999/xlink"><svg width="29" height="27" viewBox="0 0 29 27" id="L1VzZXJzL2t1a2tvbWFoL3Byb2plY3RzL0xlRHVuZS1mcm9udGVuZC9zcmMvbW9kdWxlcy9jYXRhbG9nL3Nwcml0ZS1waG9uZS5zdmc=" y="52" xmlns="http://www.w3.org/2000/svg"><title>sprite-phone</title><path d="M20.273 26.953c-.498 0-.947-.055-1.336-.164l-.175-.05c-1.873-.52-6.848-1.908-10.267-5.108-3.544-3.32-6.233-6.662-7.376-9.172C-.176 9.614-.017 7.886.036 7.319.16 6.005.705 2.795 3.09 1.26 3.55.97 4.215.624 4.807.624l2.236.018c.55.096 1.327.515 1.702 1.384.249.565 1.974 4.63 2.1 4.947.477 1.136.4 2.142-.24 2.974a57.531 57.531 0 0 1-1.503 1.814c.398.638 1.598 2.458 3.127 3.834 1.626 1.462 3.636 2.543 4.543 2.844.066.022.118.036.158.044l.102-.14.107-.138c.414-.537 1.696-2.163 1.696-2.163.235-.354.873-.847 1.726-.847.348 0 .7.081 1.047.24.79.363 4.33 2.085 4.997 2.408.645.2 1.288.795 1.34 1.753l.015.181c.067.765.249 2.794-1.486 4.673-1.512 1.643-4.264 2.503-6.2 2.503zM4.806 3.082c.024.014-.249.155-.401.253-1.517.974-1.862 3.471-1.933 4.212-.038.405-.15 1.642.872 3.89 1 2.194 3.55 5.333 6.82 8.396 2.98 2.79 7.537 4.06 9.252 4.538l.18.05c.12.034.333.074.677.074 1.36 0 3.431-.654 4.406-1.714.969-1.051.905-2.09.85-2.732-.673-.327-4.007-1.947-4.881-2.353-.362.464-1.247 1.59-1.577 2.014-.516.691-1.372 1.622-3.063 1.064-1.33-.442-3.613-1.731-5.412-3.349-1.994-1.795-3.438-4.139-3.71-4.59-.622-1.024-.29-2.05.286-2.573-.009-.003 1.003-1.179 1.498-1.819.054-.068.06-.183-.086-.53-.132-.33-1.72-4.076-2.05-4.83H4.807v-.001z" fill-rule="nonzero" fill="#DAB985"/></svg><svg width="23" height="33" viewBox="0 0 23 33" id="L1VzZXJzL2t1a2tvbWFoL3Byb2plY3RzL0xlRHVuZS1mcm9udGVuZC9zcmMvbW9kdWxlcy9jYXRhbG9nL3Nwcml0ZS1wbGFjZS5zdmc=" x="56" xmlns="http://www.w3.org/2000/svg"><title>sprite-place</title><g fill-rule="nonzero" fill="#DAB985"><path d="M11.499.2C5.215.2.103 5.2.103 11.348c0 1.906.501 3.788 1.471 5.48L11.499 32.8l9.944-16.006a10.968 10.968 0 0 0 1.453-5.445c0-6.148-5.11-11.15-11.397-11.15zm7.806 15.374L11.5 28.14 3.71 15.607a8.578 8.578 0 0 1-1.133-4.259c0-4.813 4.002-8.728 8.92-8.728 4.92 0 8.924 3.915 8.924 8.728 0 1.49-.393 2.964-1.117 4.225z"/><path d="M11.499 5.889c-3.078 0-5.581 2.45-5.581 5.46s2.502 5.46 5.58 5.46c3.08 0 5.581-2.45 5.581-5.46s-2.5-5.46-5.58-5.46zm0 8.5c-1.713 0-3.106-1.364-3.106-3.04 0-1.675 1.393-3.038 3.106-3.038 1.711 0 3.105 1.363 3.105 3.038 0 1.675-1.394 3.04-3.105 3.04z"/></g></svg><svg width="28" height="27" viewBox="0 0 28 27" id="L1VzZXJzL2t1a2tvbWFoL3Byb2plY3RzL0xlRHVuZS1mcm9udGVuZC9zcmMvbW9kdWxlcy9jYXRhbG9nL3Nwcml0ZS1wcmljZS5zdmc=" x="29" y="52" xmlns="http://www.w3.org/2000/svg"><title>sprite-price</title><g fill-rule="nonzero" fill="#DAB985"><path d="M25.614 8.006V2.512c0-1.3-1.069-2.355-2.387-2.355H2.545C1.228.157.16 1.211.16 2.512v21.976c0 1.3 1.069 2.355 2.386 2.355h20.682c1.318 0 2.387-1.054 2.387-2.355v-5.494c1.318 0 2.386-1.054 2.386-2.354v-6.28c0-1.3-1.068-2.354-2.386-2.354zm-2.387 16.482H2.545V2.512h20.682v5.494H17.66c-1.318 0-2.386 1.054-2.386 2.354v6.28c0 1.3 1.068 2.354 2.386 2.354h5.568v5.494zm2.387-7.848h-7.955v-6.28h7.955v6.28z"/><ellipse cx="20.841" cy="13.5" rx="1.591" ry="1.57"/><path d="M18.455 4.081h3.182v1.57h-3.182zM13.682 4.081h3.182v1.57h-3.182zM8.909 4.081h3.182v1.57H8.909zM4.136 4.081h3.182v1.57H4.136zM18.455 21.349h3.182v1.57h-3.182zM13.682 21.349h3.182v1.57h-3.182zM8.909 21.349h3.182v1.57H8.909zM4.136 21.349h3.182v1.57H4.136zM10.5 14.285c1.754 0 3.182-1.409 3.182-3.14 0-1.73-1.428-3.14-3.182-3.14H5.727v4.71h-1.59v1.57h1.59v1.57h-1.59v1.57h1.59v1.57h1.591v-1.57h4.773v-1.57H7.318v-1.57H10.5zm-3.182-4.71H10.5c.877 0 1.59.705 1.59 1.57 0 .866-.713 1.57-1.59 1.57H7.318v-3.14z"/></g></svg><svg width="20" height="12" viewBox="0 0 20 12" id="L1VzZXJzL2t1a2tvbWFoL3Byb2plY3RzL0xlRHVuZS1mcm9udGVuZC9zcmMvbW9kdWxlcy9jYXRhbG9nL3Nwcml0ZS1zaG93LW1vcmUuc3Zn" x="79" y="30" xmlns="http://www.w3.org/2000/svg"><title>sprite-show-more</title><path d="M0 0l9.992 12L20 .009" stroke-width="1.5" stroke="#FFF" fill="none" fill-rule="evenodd" stroke-linecap="round" stroke-linejoin="round"/></svg><svg width="24" height="24" viewBox="0 0 24 24" id="L1VzZXJzL2t1a2tvbWFoL3Byb2plY3RzL0xlRHVuZS1mcm9udGVuZC9zcmMvbW9kdWxlcy9jYXRhbG9nL3Nwcml0ZS1zcGFjZS5zdmc=" x="57" y="52" xmlns="http://www.w3.org/2000/svg"><title>sprite-space</title><g fill-rule="nonzero" fill="#DAB985"><path d="M19.08 15.72l3.72 3.72-3.36 3.36-3.84-3.72L13.2 24l-2.4-13.2L24 13.2zM21.6 2.4h-6V0H24v8.4h-2.4zM10.8 0h2.4v2.4h-2.4zM2.4 8.4H0V0h8.4v2.4h-6zM2.4 21.6h6V24H0v-8.4h2.4zM0 10.8h2.4v2.4H0z"/></g></svg><svg width="24" height="19" viewBox="0 0 24 19" id="L1VzZXJzL2t1a2tvbWFoL3Byb2plY3RzL0xlRHVuZS1mcm9udGVuZC9zcmMvbW9kdWxlcy9jb250YWN0cy9zcHJpdGUtbWFpbC5zdmc=" y="79" xmlns="http://www.w3.org/2000/svg"><title>sprite-mail</title><path d="M0 0v19h24V0H0zm19.954 2.367L12 10.313 4.046 2.367h15.908zM2.37 16.633V4.041l9.63 9.62 9.63-9.62v12.592H2.37z" fill-rule="nonzero" fill="#DAB985"/></svg><svg width="20" height="30" viewBox="0 0 20 30" id="L1VzZXJzL2t1a2tvbWFoL3Byb2plY3RzL0xlRHVuZS1mcm9udGVuZC9zcmMvbW9kdWxlcy9jb250YWN0cy9zcHJpdGUtd29yay5zdmc=" x="79" xmlns="http://www.w3.org/2000/svg"><title>sprite-work</title><path d="M0 0v22.292h7.175V30L20 22.185V0H0zm17.342 20.737l-7.509 4.576V9.263l7.508-4.576v16.05zM7.175 7.815v11.872H2.658V2.605h13.067l-8.55 5.21z" fill-rule="nonzero" fill="#DAB985"/></svg><svg width="28" height="52" viewBox="0 0 28 52" id="L1VzZXJzL2t1a2tvbWFoL3Byb2plY3RzL0xlRHVuZS1mcm9udGVuZC9zcmMvbW9kdWxlcy9wYWdpbmF0aW9uL3Nwcml0ZS1hcnJvdy1sZWZ0LnN2Zw==" xmlns="http://www.w3.org/2000/svg"><title>sprite-arrow-left</title><path d="M28 0L0 26l28 26" stroke="#000" stroke-width="1.5" fill="none" fill-rule="evenodd" stroke-linecap="round" stroke-linejoin="round"/></svg><svg width="28" height="52" viewBox="0 0 28 52" id="L1VzZXJzL2t1a2tvbWFoL3Byb2plY3RzL0xlRHVuZS1mcm9udGVuZC9zcmMvbW9kdWxlcy9wYWdpbmF0aW9uL3Nwcml0ZS1hcnJvdy1yaWdodC5zdmc=" x="28" xmlns="http://www.w3.org/2000/svg"><title>sprite-arrow-left</title><path d="M0 0l28 26L0 52" stroke="#000" stroke-width="1.5" fill="none" fill-rule="evenodd" stroke-linecap="round" stroke-linejoin="round"/></svg></svg>