<?xml version="1.0" encoding="UTF-8"?><svg width="141" height="116" viewBox="0 0 141 116" xmlns="http://www.w3.org/2000/svg" xmlns:xlink="http://www.w3.org/1999/xlink"><svg width="29" height="27" viewBox="0 0 29 27" id="L1VzZXJzL2t1a2tvbWFoL3Byb2plY3RzL0xlRHVuZS1mcm9udGVuZC9zcmMvbW9kdWxlcy9jYXRhbG9nL3Nwcml0ZS1waG9uZS5zdmc=" x="23" y="83" xmlns="http://www.w3.org/2000/svg"><title>sprite-phone</title><path d="M20.273 26.953c-.498 0-.947-.055-1.336-.164l-.175-.05c-1.873-.52-6.848-1.908-10.267-5.108-3.544-3.32-6.233-6.662-7.376-9.172C-.176 9.614-.017 7.886.036 7.319.16 6.005.705 2.795 3.09 1.26 3.55.97 4.215.624 4.807.624l2.236.018c.55.096 1.327.515 1.702 1.384.249.565 1.974 4.63 2.1 4.947.477 1.136.4 2.142-.24 2.974a57.531 57.531 0 0 1-1.503 1.814c.398.638 1.598 2.458 3.127 3.834 1.626 1.462 3.636 2.543 4.543 2.844.066.022.118.036.158.044l.102-.14.107-.138c.414-.537 1.696-2.163 1.696-2.163.235-.354.873-.847 1.726-.847.348 0 .7.081 1.047.24.79.363 4.33 2.085 4.997 2.408.645.2 1.288.795 1.34 1.753l.015.181c.067.765.249 2.794-1.486 4.673-1.512 1.643-4.264 2.503-6.2 2.503zM4.806 3.082c.024.014-.249.155-.401.253-1.517.974-1.862 3.471-1.933 4.212-.038.405-.15 1.642.872 3.89 1 2.194 3.55 5.333 6.82 8.396 2.98 2.79 7.537 4.06 9.252 4.538l.18.05c.12.034.333.074.677.074 1.36 0 3.431-.654 4.406-1.714.969-1.051.905-2.09.85-2.732-.673-.327-4.007-1.947-4.881-2.353-.362.464-1.247 1.59-1.577 2.014-.516.691-1.372 1.622-3.063 1.064-1.33-.442-3.613-1.731-5.412-3.349-1.994-1.795-3.438-4.139-3.71-4.59-.622-1.024-.29-2.05.286-2.573-.009-.003 1.003-1.179 1.498-1.819.054-.068.06-.183-.086-.53-.132-.33-1.72-4.076-2.05-4.83H4.807v-.001z" fill-rule="nonzero" fill="#DAB985"/></svg><svg width="23" height="33" viewBox="0 0 23 33" id="L1VzZXJzL2t1a2tvbWFoL3Byb2plY3RzL0xlRHVuZS1mcm9udGVuZC9zcmMvbW9kdWxlcy9jYXRhbG9nL3Nwcml0ZS1wbGFjZS5zdmc=" y="83" xmlns="http://www.w3.org/2000/svg"><title>sprite-place</title><g fill-rule="nonzero" fill="#DAB985"><path d="M11.499.2C5.215.2.103 5.2.103 11.348c0 1.906.501 3.788 1.471 5.48L11.499 32.8l9.944-16.006a10.968 10.968 0 0 0 1.453-5.445c0-6.148-5.11-11.15-11.397-11.15zm7.806 15.374L11.5 28.14 3.71 15.607a8.578 8.578 0 0 1-1.133-4.259c0-4.813 4.002-8.728 8.92-8.728 4.92 0 8.924 3.915 8.924 8.728 0 1.49-.393 2.964-1.117 4.225z"/><path d="M11.499 5.889c-3.078 0-5.581 2.45-5.581 5.46s2.502 5.46 5.58 5.46c3.08 0 5.581-2.45 5.581-5.46s-2.5-5.46-5.58-5.46zm0 8.5c-1.713 0-3.106-1.364-3.106-3.04 0-1.675 1.393-3.038 3.106-3.038 1.711 0 3.105 1.363 3.105 3.038 0 1.675-1.394 3.04-3.105 3.04z"/></g></svg><svg width="28" height="27" viewBox="0 0 28 27" id="L1VzZXJzL2t1a2tvbWFoL3Byb2plY3RzL0xlRHVuZS1mcm9udGVuZC9zcmMvbW9kdWxlcy9jYXRhbG9nL3Nwcml0ZS1wcmljZS5zdmc=" x="52" y="83" xmlns="http://www.w3.org/2000/svg"><title>sprite-price</title><g fill-rule="nonzero" fill="#DAB985"><path d="M25.614 8.006V2.512c0-1.3-1.069-2.355-2.387-2.355H2.545C1.228.157.16 1.211.16 2.512v21.976c0 1.3 1.069 2.355 2.386 2.355h20.682c1.318 0 2.387-1.054 2.387-2.355v-5.494c1.318 0 2.386-1.054 2.386-2.354v-6.28c0-1.3-1.068-2.354-2.386-2.354zm-2.387 16.482H2.545V2.512h20.682v5.494H17.66c-1.318 0-2.386 1.054-2.386 2.354v6.28c0 1.3 1.068 2.354 2.386 2.354h5.568v5.494zm2.387-7.848h-7.955v-6.28h7.955v6.28z"/><ellipse cx="20.841" cy="13.5" rx="1.591" ry="1.57"/><path d="M18.455 4.081h3.182v1.57h-3.182zM13.682 4.081h3.182v1.57h-3.182zM8.909 4.081h3.182v1.57H8.909zM4.136 4.081h3.182v1.57H4.136zM18.455 21.349h3.182v1.57h-3.182zM13.682 21.349h3.182v1.57h-3.182zM8.909 21.349h3.182v1.57H8.909zM4.136 21.349h3.182v1.57H4.136zM10.5 14.285c1.754 0 3.182-1.409 3.182-3.14 0-1.73-1.428-3.14-3.182-3.14H5.727v4.71h-1.59v1.57h1.59v1.57h-1.59v1.57h1.59v1.57h1.591v-1.57h4.773v-1.57H7.318v-1.57H10.5zm-3.182-4.71H10.5c.877 0 1.59.705 1.59 1.57 0 .866-.713 1.57-1.59 1.57H7.318v-3.14z"/></g></svg><svg width="20" height="12" viewBox="0 0 20 12" id="L1VzZXJzL2t1a2tvbWFoL3Byb2plY3RzL0xlRHVuZS1mcm9udGVuZC9zcmMvbW9kdWxlcy9jYXRhbG9nL3Nwcml0ZS1zaG93LW1vcmUuc3Zn" x="106" y="70" xmlns="http://www.w3.org/2000/svg"><title>sprite-show-more</title><path d="M0 0l9.992 12L20 .009" stroke-width="1.5" stroke="#FFF" fill="none" fill-rule="evenodd" stroke-linecap="round" stroke-linejoin="round"/></svg><svg width="24" height="24" viewBox="0 0 24 24" id="L1VzZXJzL2t1a2tvbWFoL3Byb2plY3RzL0xlRHVuZS1mcm9udGVuZC9zcmMvbW9kdWxlcy9jYXRhbG9nL3Nwcml0ZS1zcGFjZS5zdmc=" x="80" y="83" xmlns="http://www.w3.org/2000/svg"><title>sprite-space</title><g fill-rule="nonzero" fill="#DAB985"><path d="M19.08 15.72l3.72 3.72-3.36 3.36-3.84-3.72L13.2 24l-2.4-13.2L24 13.2zM21.6 2.4h-6V0H24v8.4h-2.4zM10.8 0h2.4v2.4h-2.4zM2.4 8.4H0V0h8.4v2.4h-6zM2.4 21.6h6V24H0v-8.4h2.4zM0 10.8h2.4v2.4H0z"/></g></svg><svg width="25" height="33" viewBox="0 0 25 33" id="L1VzZXJzL2t1a2tvbWFoL3Byb2plY3RzL0xlRHVuZS1mcm9udGVuZC9zcmMvbW9kdWxlcy9jYXRlZ29yaWVzL3Nwcml0ZS1jYXRlZ29yeS00LnN2Zw==" x="106" y="37" xmlns="http://www.w3.org/2000/svg"><title>sprite-category-4</title><g stroke-width="2" stroke="#C6AD82" fill="none" fill-rule="evenodd" stroke-linecap="round" stroke-linejoin="round"><path d="M8.033 0v32.188M8.033 32.298h16.172M8.033 3.244S23.42 5.755 24.351 32.188M8.619 13.08h11.167M8.619 19.516h13.248M8.619 25.952h15.198M.65 10.15h6.83"/></g></svg><svg width="31" height="31" viewBox="0 0 31 31" id="L1VzZXJzL2t1a2tvbWFoL3Byb2plY3RzL0xlRHVuZS1mcm9udGVuZC9zcmMvbW9kdWxlcy9jYXRlZ29yaWVzL3Nwcml0ZS1jYXRlZ29yeS01LnN2Zw==" x="43" y="52" xmlns="http://www.w3.org/2000/svg"><title>sprite-category-5</title><path d="M15.5 19.42a3.177 3.177 0 0 0-3.173 3.174 3.177 3.177 0 0 0 3.173 3.173 3.177 3.177 0 0 0 3.173-3.173 3.177 3.177 0 0 0-3.173-3.173zm0 4.625c-.8 0-1.451-.651-1.451-1.45 0-.801.65-1.452 1.451-1.452.8 0 1.451.651 1.451 1.451s-.65 1.451-1.451 1.451zm0-11.755a3.177 3.177 0 0 0-3.173 3.173 3.177 3.177 0 0 0 3.173 3.173 3.177 3.177 0 0 0 3.173-3.173A3.177 3.177 0 0 0 15.5 12.29zm0 4.624c-.8 0-1.451-.651-1.451-1.451s.65-1.451 1.451-1.451c.8 0 1.451.65 1.451 1.45 0 .8-.65 1.452-1.451 1.452zm0-11.681a3.177 3.177 0 0 0-3.173 3.173 3.177 3.177 0 0 0 3.173 3.173 3.177 3.177 0 0 0 3.173-3.173A3.177 3.177 0 0 0 15.5 5.233zm0 4.624c-.8 0-1.451-.651-1.451-1.451s.65-1.451 1.451-1.451c.8 0 1.451.651 1.451 1.45 0 .801-.65 1.452-1.451 1.452zM15.5 0C6.953 0 0 6.953 0 15.5S6.953 31 15.5 31 31 24.047 31 15.5 24.047 0 15.5 0zm0 29.278c-7.597 0-13.778-6.18-13.778-13.778 0-7.597 6.18-13.778 13.778-13.778 7.597 0 13.778 6.18 13.778 13.778 0 7.597-6.18 13.778-13.778 13.778z" fill-rule="nonzero" fill="#C6AD82"/></svg><svg width="50" height="35" viewBox="0 0 50 35" id="L1VzZXJzL2t1a2tvbWFoL3Byb2plY3RzL0xlRHVuZS1mcm9udGVuZC9zcmMvbW9kdWxlcy9jYXRlZ29yaWVzL3Nwcml0ZS1jYXRlZ29yeS0xLnN2Zw==" x="56" xmlns="http://www.w3.org/2000/svg"><title>sprite-category-1</title><path d="M14.706 35H0V24.792h14.706V11.667h-4.412l5.882-7.292h17.648V0h4.411v4.375h5.883L50 11.667h-4.412V35H14.706zm1.47-21.875h27.942v-1.458H16.176v1.458zm1.471-7.292l-4.412 4.375H47.06l-4.412-4.375h-25zm-1.47 27.709H26.47v-1.459H16.176v1.459zm27.94-18.959h-27.94v16.052l10.294-.01v-5.833h7.353v5.833h10.294V14.583zm0 18.959v-1.459H33.825v1.459h10.294zm-11.764 0V26.25H27.94v7.292h4.412zM17.647 23.333H25v5.834h-7.353v-5.834zm1.47 1.459v2.916h4.412v-2.916h-4.411zm16.177-1.459h7.353v5.834h-7.353v-5.834zm1.47 1.459v2.916h4.412v-2.916h-4.411zm-1.47-23.334v2.917h1.47V1.458h-1.47zM14.706 33.542v-7.28L1.47 26.25v7.292h1.47v-5.834l10.294.012v5.822h1.47zm-2.941-1.459H4.412v1.459h7.353v-1.459zm0-1.458v-1.458H4.412v1.458h7.353zm5.882-14.583h11.765v5.833H17.647v-5.833zm1.47 1.458v2.917h8.824V17.5h-8.823zm11.765-1.458h11.765v5.833H30.882v-5.833zm1.47 1.458v2.917h8.824V17.5h-8.823z" fill-rule="nonzero" fill="#DDBC88"/></svg><svg width="35" height="37" viewBox="0 0 35 37" id="L1VzZXJzL2t1a2tvbWFoL3Byb2plY3RzL0xlRHVuZS1mcm9udGVuZC9zcmMvbW9kdWxlcy9jYXRlZ29yaWVzL3Nwcml0ZS1jYXRlZ29yeS0yLnN2Zw==" x="106" xmlns="http://www.w3.org/2000/svg"><title>sprite-category-2</title><path d="M33.743 12.158H.843a.842.842 0 0 1-.442-1.557L16.847.51a.844.844 0 0 1 .884 0l16.377 10.048a.84.84 0 0 1-.365 1.6zm-29.92-1.682h26.932L17.29 2.214 3.823 10.476zm4.4 21.093H4.849a.842.842 0 0 1-.843-.84V13.84c0-.464.378-.84.843-.84h3.374c.465 0 .843.376.843.84V30.73c0 .464-.378.84-.843.84zm-2.53-1.682H7.38V14.681H5.693v15.206zm9.699 1.682h-3.374a.842.842 0 0 1-.843-.84V13.84c0-.464.378-.84.843-.84h3.374c.465 0 .843.376.843.84V30.73c0 .464-.378.84-.843.84zm-2.53-1.682h1.686V14.681h-1.687v15.206zm9.698 1.682h-3.373a.842.842 0 0 1-.844-.84V13.84c0-.464.378-.84.844-.84h3.373c.466 0 .844.376.844.84V30.73c0 .464-.378.84-.844.84zm-2.53-1.682h1.687V14.681H20.03v15.206zm9.699 1.682h-3.374a.842.842 0 0 1-.843-.84V13.84c0-.464.378-.84.843-.84h3.374c.465 0 .843.376.843.84V30.73c0 .464-.378.84-.843.84zm-2.53-1.682h1.687V14.681h-1.687v15.206zm5.693 3.364a.842.842 0 0 0-.844-.841H2.53a.842.842 0 0 0-.843.84c0 .465.378.842.843.842h29.518a.842.842 0 0 0 .844-.841zm1.686 2.523a.842.842 0 0 0-.843-.841H.843a.842.842 0 0 0-.843.84c0 .465.378.841.843.841h32.892a.842.842 0 0 0 .843-.84z" fill-rule="nonzero" fill="#DDBC88"/></svg><svg width="43" height="31" viewBox="0 0 43 31" id="L1VzZXJzL2t1a2tvbWFoL3Byb2plY3RzL0xlRHVuZS1mcm9udGVuZC9zcmMvbW9kdWxlcy9jYXRlZ29yaWVzL3Nwcml0ZS1jYXRlZ29yeS0zLnN2Zw==" y="52" xmlns="http://www.w3.org/2000/svg"><title>sprite-category-3</title><g fill-rule="nonzero" fill="#C6AD82"><path d="M42.805 30.87H.402v-5.333h42.402v5.334zM1.908 29.362H41.3v-2.315H1.908v2.315zM1.156 17.352h40.897v1.509H1.156zM1.156 9.806h40.897v1.509H1.156z"/><path d="M38.042 26.715L22.522 3.77H1.157v-1.51H23.32l15.968 23.609zM39.794 10.56H41.3v15.731h-1.506z"/><path d="M1.908 3.014h1.505v23.278H1.908zM7.113 6.417h1.505v4.143H7.113zM13.134 6.417h1.505v4.143h-1.505zM19.156 6.417h1.505v4.143h-1.505zM7.113 13.964h1.505v4.143H7.113zM13.134 13.964h1.505v4.143h-1.505zM19.156 13.964h1.505v4.143h-1.505z"/><path d="M7.113 13.964h1.505v4.143H7.113zM13.134 13.964h1.505v4.143h-1.505zM19.156 13.964h1.505v4.143h-1.505zM7.113 22.148h1.505v4.144H7.113zM13.134 22.148h1.505v4.144h-1.505zM19.156 22.148h1.505v4.144h-1.505z"/><path d="M7.113 22.148h1.505v4.144H7.113zM13.134 22.148h1.505v4.144h-1.505zM19.156 22.148h1.505v4.144h-1.505zM25.178 13.964h1.505v4.143h-1.505zM35.716 13.964h1.505v4.143h-1.505zM25.178 22.148h1.505v4.144h-1.505z"/><path d="M25.178 22.148h1.505v4.144h-1.505zM31.2 22.148h1.505v4.144H31.2z"/><path d="M31.2 22.148h1.505v4.144H31.2zM1.156.129h22.141v1.509H1.156z"/></g></svg><svg width="28" height="52" viewBox="0 0 28 52" id="L1VzZXJzL2t1a2tvbWFoL3Byb2plY3RzL0xlRHVuZS1mcm9udGVuZC9zcmMvbW9kdWxlcy9wYWdpbmF0aW9uL3Nwcml0ZS1hcnJvdy1sZWZ0LnN2Zw==" x="28" xmlns="http://www.w3.org/2000/svg"><title>sprite-arrow-left</title><path d="M28 0L0 26l28 26" stroke="#000" stroke-width="1.5" fill="none" fill-rule="evenodd" stroke-linecap="round" stroke-linejoin="round"/></svg><svg width="28" height="52" viewBox="0 0 28 52" id="L1VzZXJzL2t1a2tvbWFoL3Byb2plY3RzL0xlRHVuZS1mcm9udGVuZC9zcmMvbW9kdWxlcy9wYWdpbmF0aW9uL3Nwcml0ZS1hcnJvdy1yaWdodC5zdmc=" xmlns="http://www.w3.org/2000/svg"><title>sprite-arrow-left</title><path d="M0 0l28 26L0 52" stroke="#000" stroke-width="1.5" fill="none" fill-rule="evenodd" stroke-linecap="round" stroke-linejoin="round"/></svg><svg width="19" height="10" viewBox="0 0 19 10" id="L1VzZXJzL2t1a2tvbWFoL3Byb2plY3RzL0xlRHVuZS1mcm9udGVuZC9zcmMvbW9kdWxlcy9zZWxlY3Qvc3ByaXRlLXNlbGVjdC1hcnJvdy5zdmc=" x="56" y="35" xmlns="http://www.w3.org/2000/svg"><title>sprite-select-arrow</title><path d="M0 .115L9.395 10 19 0" stroke="#4A4A4A" fill="none" fill-rule="evenodd" stroke-linecap="round" stroke-linejoin="round"/></svg><svg width="24" height="19" viewBox="0 0 24 19" id="L1VzZXJzL2t1a2tvbWFoL3Byb2plY3RzL0xlRHVuZS1mcm9udGVuZC9zcmMvcGFnZXMvY29udGFjdHMvc3ByaXRlLW1haWwuc3Zn" x="104" y="83" xmlns="http://www.w3.org/2000/svg"><title>sprite-mail</title><path d="M0 0v19h24V0H0zm19.954 2.367L12 10.313 4.046 2.367h15.908zM2.37 16.633V4.041l9.63 9.62 9.63-9.62v12.592H2.37z" fill-rule="nonzero" fill="#DAB985"/></svg><svg width="20" height="30" viewBox="0 0 20 30" id="L1VzZXJzL2t1a2tvbWFoL3Byb2plY3RzL0xlRHVuZS1mcm9udGVuZC9zcmMvcGFnZXMvY29udGFjdHMvc3ByaXRlLXdvcmsuc3Zn" x="74" y="52" xmlns="http://www.w3.org/2000/svg"><title>sprite-work</title><path d="M0 0v22.292h7.175V30L20 22.185V0H0zm17.342 20.737l-7.509 4.576V9.263l7.508-4.576v16.05zM7.175 7.815v11.872H2.658V2.605h13.067l-8.55 5.21z" fill-rule="nonzero" fill="#DAB985"/></svg></svg>