<?xml version="1.0" encoding="UTF-8"?><svg width="93" height="72" viewBox="0 0 93 72" xmlns="http://www.w3.org/2000/svg" xmlns:xlink="http://www.w3.org/1999/xlink"><svg width="25" height="33" viewBox="0 0 25 33" id="L1VzZXJzL2t1a2tvbWFoL3Byb2plY3RzL0xlRHVuZS1mcm9udGVuZC9zcmMvbW9kdWxlcy9jYXRlZ29yaWVzL3Nwcml0ZS1jYXRlZ29yeS00LnN2Zw==" x="35" y="35" xmlns="http://www.w3.org/2000/svg"><title>sprite-category-4</title><g stroke-width="2" stroke="#C6AD82" fill="none" fill-rule="evenodd" stroke-linecap="round" stroke-linejoin="round"><path d="M8.033 0v32.188M8.033 32.298h16.172M8.033 3.244S23.42 5.755 24.351 32.188M8.619 13.08h11.167M8.619 19.516h13.248M8.619 25.952h15.198M.65 10.15h6.83"/></g></svg><svg width="31" height="31" viewBox="0 0 31 31" id="L1VzZXJzL2t1a2tvbWFoL3Byb2plY3RzL0xlRHVuZS1mcm9udGVuZC9zcmMvbW9kdWxlcy9jYXRlZ29yaWVzL3Nwcml0ZS1jYXRlZ29yeS01LnN2Zw==" x="60" y="35" xmlns="http://www.w3.org/2000/svg"><title>sprite-category-5</title><path d="M15.5 19.42a3.177 3.177 0 0 0-3.173 3.174 3.177 3.177 0 0 0 3.173 3.173 3.177 3.177 0 0 0 3.173-3.173 3.177 3.177 0 0 0-3.173-3.173zm0 4.625c-.8 0-1.451-.651-1.451-1.45 0-.801.65-1.452 1.451-1.452.8 0 1.451.651 1.451 1.451s-.65 1.451-1.451 1.451zm0-11.755a3.177 3.177 0 0 0-3.173 3.173 3.177 3.177 0 0 0 3.173 3.173 3.177 3.177 0 0 0 3.173-3.173A3.177 3.177 0 0 0 15.5 12.29zm0 4.624c-.8 0-1.451-.651-1.451-1.451s.65-1.451 1.451-1.451c.8 0 1.451.65 1.451 1.45 0 .8-.65 1.452-1.451 1.452zm0-11.681a3.177 3.177 0 0 0-3.173 3.173 3.177 3.177 0 0 0 3.173 3.173 3.177 3.177 0 0 0 3.173-3.173A3.177 3.177 0 0 0 15.5 5.233zm0 4.624c-.8 0-1.451-.651-1.451-1.451s.65-1.451 1.451-1.451c.8 0 1.451.651 1.451 1.45 0 .801-.65 1.452-1.451 1.452zM15.5 0C6.953 0 0 6.953 0 15.5S6.953 31 15.5 31 31 24.047 31 15.5 24.047 0 15.5 0zm0 29.278c-7.597 0-13.778-6.18-13.778-13.778 0-7.597 6.18-13.778 13.778-13.778 7.597 0 13.778 6.18 13.778 13.778 0 7.597-6.18 13.778-13.778 13.778z" fill-rule="nonzero" fill="#C6AD82"/></svg><svg width="50" height="35" viewBox="0 0 50 35" id="L1VzZXJzL2t1a2tvbWFoL3Byb2plY3RzL0xlRHVuZS1mcm9udGVuZC9zcmMvbW9kdWxlcy9jYXRlZ29yaWVzL3Nwcml0ZS1jYXRlZ29yeS0xLnN2Zw==" xmlns="http://www.w3.org/2000/svg"><title>sprite-category-1</title><path d="M14.706 35H0V24.792h14.706V11.667h-4.412l5.882-7.292h17.648V0h4.411v4.375h5.883L50 11.667h-4.412V35H14.706zm1.47-21.875h27.942v-1.458H16.176v1.458zm1.471-7.292l-4.412 4.375H47.06l-4.412-4.375h-25zm-1.47 27.709H26.47v-1.459H16.176v1.459zm27.94-18.959h-27.94v16.052l10.294-.01v-5.833h7.353v5.833h10.294V14.583zm0 18.959v-1.459H33.825v1.459h10.294zm-11.764 0V26.25H27.94v7.292h4.412zM17.647 23.333H25v5.834h-7.353v-5.834zm1.47 1.459v2.916h4.412v-2.916h-4.411zm16.177-1.459h7.353v5.834h-7.353v-5.834zm1.47 1.459v2.916h4.412v-2.916h-4.411zm-1.47-23.334v2.917h1.47V1.458h-1.47zM14.706 33.542v-7.28L1.47 26.25v7.292h1.47v-5.834l10.294.012v5.822h1.47zm-2.941-1.459H4.412v1.459h7.353v-1.459zm0-1.458v-1.458H4.412v1.458h7.353zm5.882-14.583h11.765v5.833H17.647v-5.833zm1.47 1.458v2.917h8.824V17.5h-8.823zm11.765-1.458h11.765v5.833H30.882v-5.833zm1.47 1.458v2.917h8.824V17.5h-8.823z" fill-rule="nonzero" fill="#DDBC88"/></svg><svg width="35" height="37" viewBox="0 0 35 37" id="L1VzZXJzL2t1a2tvbWFoL3Byb2plY3RzL0xlRHVuZS1mcm9udGVuZC9zcmMvbW9kdWxlcy9jYXRlZ29yaWVzL3Nwcml0ZS1jYXRlZ29yeS0yLnN2Zw==" y="35" xmlns="http://www.w3.org/2000/svg"><title>sprite-category-2</title><path d="M33.743 12.158H.843a.842.842 0 0 1-.442-1.557L16.847.51a.844.844 0 0 1 .884 0l16.377 10.048a.84.84 0 0 1-.365 1.6zm-29.92-1.682h26.932L17.29 2.214 3.823 10.476zm4.4 21.093H4.849a.842.842 0 0 1-.843-.84V13.84c0-.464.378-.84.843-.84h3.374c.465 0 .843.376.843.84V30.73c0 .464-.378.84-.843.84zm-2.53-1.682H7.38V14.681H5.693v15.206zm9.699 1.682h-3.374a.842.842 0 0 1-.843-.84V13.84c0-.464.378-.84.843-.84h3.374c.465 0 .843.376.843.84V30.73c0 .464-.378.84-.843.84zm-2.53-1.682h1.686V14.681h-1.687v15.206zm9.698 1.682h-3.373a.842.842 0 0 1-.844-.84V13.84c0-.464.378-.84.844-.84h3.373c.466 0 .844.376.844.84V30.73c0 .464-.378.84-.844.84zm-2.53-1.682h1.687V14.681H20.03v15.206zm9.699 1.682h-3.374a.842.842 0 0 1-.843-.84V13.84c0-.464.378-.84.843-.84h3.374c.465 0 .843.376.843.84V30.73c0 .464-.378.84-.843.84zm-2.53-1.682h1.687V14.681h-1.687v15.206zm5.693 3.364a.842.842 0 0 0-.844-.841H2.53a.842.842 0 0 0-.843.84c0 .465.378.842.843.842h29.518a.842.842 0 0 0 .844-.841zm1.686 2.523a.842.842 0 0 0-.843-.841H.843a.842.842 0 0 0-.843.84c0 .465.378.841.843.841h32.892a.842.842 0 0 0 .843-.84z" fill-rule="nonzero" fill="#DDBC88"/></svg><svg width="43" height="31" viewBox="0 0 43 31" id="L1VzZXJzL2t1a2tvbWFoL3Byb2plY3RzL0xlRHVuZS1mcm9udGVuZC9zcmMvbW9kdWxlcy9jYXRlZ29yaWVzL3Nwcml0ZS1jYXRlZ29yeS0zLnN2Zw==" x="50" xmlns="http://www.w3.org/2000/svg"><title>sprite-category-3</title><g fill-rule="nonzero" fill="#C6AD82"><path d="M42.805 30.87H.402v-5.333h42.402v5.334zM1.908 29.362H41.3v-2.315H1.908v2.315zM1.156 17.352h40.897v1.509H1.156zM1.156 9.806h40.897v1.509H1.156z"/><path d="M38.042 26.715L22.522 3.77H1.157v-1.51H23.32l15.968 23.609zM39.794 10.56H41.3v15.731h-1.506z"/><path d="M1.908 3.014h1.505v23.278H1.908zM7.113 6.417h1.505v4.143H7.113zM13.134 6.417h1.505v4.143h-1.505zM19.156 6.417h1.505v4.143h-1.505zM7.113 13.964h1.505v4.143H7.113zM13.134 13.964h1.505v4.143h-1.505zM19.156 13.964h1.505v4.143h-1.505z"/><path d="M7.113 13.964h1.505v4.143H7.113zM13.134 13.964h1.505v4.143h-1.505zM19.156 13.964h1.505v4.143h-1.505zM7.113 22.148h1.505v4.144H7.113zM13.134 22.148h1.505v4.144h-1.505zM19.156 22.148h1.505v4.144h-1.505z"/><path d="M7.113 22.148h1.505v4.144H7.113zM13.134 22.148h1.505v4.144h-1.505zM19.156 22.148h1.505v4.144h-1.505zM25.178 13.964h1.505v4.143h-1.505zM35.716 13.964h1.505v4.143h-1.505zM25.178 22.148h1.505v4.144h-1.505z"/><path d="M25.178 22.148h1.505v4.144h-1.505zM31.2 22.148h1.505v4.144H31.2z"/><path d="M31.2 22.148h1.505v4.144H31.2zM1.156.129h22.141v1.509H1.156z"/></g></svg></svg>