<?xml version="1.0" encoding="UTF-8"?>
<svg width="31px" height="31px" viewBox="0 0 31 31" version="1.1" xmlns="http://www.w3.org/2000/svg" xmlns:xlink="http://www.w3.org/1999/xlink">
    <!-- Generator: Sketch 44.1 (41455) - http://www.bohemiancoding.com/sketch -->
    <title>sprite-category-5</title>
    <desc>Created with Sketch.</desc>
    <defs></defs>
    <g id="Symbols" stroke="none" stroke-width="1" fill="none" fill-rule="evenodd">
        <g id="sprite-category-5" fill-rule="nonzero" fill="#C6AD82">
            <path d="M15.5,19.4208111 C13.7502222,19.4208111 12.3266333,20.8444 12.3266333,22.5941778 C12.3266333,24.3436111 13.7502222,25.7672 15.5,25.7672 C17.2497778,25.7672 18.6733667,24.3436111 18.6733667,22.5941778 C18.6733667,20.8444 17.2497778,19.4208111 15.5,19.4208111 Z M15.5,24.0449778 C14.6998556,24.0449778 14.0488556,23.3939778 14.0488556,22.5941778 C14.0488556,21.7940333 14.6998556,21.1430333 15.5,21.1430333 C16.3001444,21.1430333 16.9511444,21.7940333 16.9511444,22.5941778 C16.9511444,23.3939778 16.3001444,24.0449778 15.5,24.0449778 Z M15.5,12.2897778 C13.7502222,12.2897778 12.3266333,13.7133667 12.3266333,15.4631444 C12.3266333,17.2125778 13.7502222,18.6361667 15.5,18.6361667 C17.2497778,18.6361667 18.6733667,17.2125778 18.6733667,15.4631444 C18.6733667,13.7133667 17.2497778,12.2897778 15.5,12.2897778 Z M15.5,16.9136 C14.6998556,16.9136 14.0488556,16.2626 14.0488556,15.4628 C14.0488556,14.6626556 14.6998556,14.0116556 15.5,14.0116556 C16.3001444,14.0116556 16.9511444,14.6626556 16.9511444,15.4628 C16.9511444,16.2629444 16.3001444,16.9136 15.5,16.9136 Z M15.5,5.2328 C13.7502222,5.2328 12.3266333,6.65638889 12.3266333,8.40582222 C12.3266333,10.1556 13.7502222,11.5791889 15.5,11.5791889 C17.2497778,11.5791889 18.6733667,10.1556 18.6733667,8.40582222 C18.6733667,6.65638889 17.2497778,5.2328 15.5,5.2328 Z M15.5,9.85696667 C14.6998556,9.85696667 14.0488556,9.20596667 14.0488556,8.40582222 C14.0488556,7.60602222 14.6998556,6.95502222 15.5,6.95502222 C16.3001444,6.95502222 16.9511444,7.60602222 16.9511444,8.40582222 C16.9511444,9.20631111 16.3001444,9.85696667 15.5,9.85696667 Z M15.5,0 C6.9533,0 0,6.9533 0,15.5 C0,24.0467 6.9533,31 15.5,31 C24.0467,31 31,24.0467 31,15.5 C31,6.9533 24.0467,0 15.5,0 Z M15.5,29.2777778 C7.90293333,29.2777778 1.72222222,23.0970667 1.72222222,15.5 C1.72222222,7.90293333 7.90293333,1.72222222 15.5,1.72222222 C23.0970667,1.72222222 29.2777778,7.90293333 29.2777778,15.5 C29.2777778,23.0970667 23.0970667,29.2777778 15.5,29.2777778 Z" id="Shape"></path>
        </g>
    </g>
</svg>