<?xml version="1.0" encoding="UTF-8"?>
<svg width="35px" height="37px" viewBox="0 0 35 37" version="1.1" xmlns="http://www.w3.org/2000/svg" xmlns:xlink="http://www.w3.org/1999/xlink">
    <!-- Generator: Sketch 44.1 (41455) - http://www.bohemiancoding.com/sketch -->
    <title>sprite-category-2</title>
    <desc>Created with Sketch.</desc>
    <defs></defs>
    <g id="Symbols" stroke="none" stroke-width="1" fill="none" fill-rule="evenodd">
        <g id="sprite-category-2" fill-rule="nonzero" fill="#DDBC88">
            <path d="M33.7433735,12.1582841 L33.7349398,12.1582841 L0.843373494,12.1582841 C0.465963855,12.1582841 0.134518072,11.9085341 0.0320481928,11.5465227 C-0.0708433735,11.1840909 0.0801204819,10.7981136 0.401445783,10.6009205 L16.8472289,0.510011364 C17.1187952,0.343511364 17.4603614,0.343511364 17.7310843,0.510011364 L34.1081325,10.5584545 C34.391506,10.6938409 34.586747,10.9826932 34.586747,11.3169545 C34.586747,11.7815568 34.2093373,12.1582841 33.7433735,12.1582841 Z M3.82301205,10.4764659 L30.7553012,10.4764659 L17.2891566,2.21369318 L3.82301205,10.4764659 Z M8.22289157,31.5689886 L4.84939759,31.5689886 C4.38385542,31.5689886 4.0060241,31.1922614 4.0060241,30.7280795 L4.0060241,13.8401023 C4.0060241,13.3759205 4.38385542,12.9991932 4.84939759,12.9991932 L8.22289157,12.9991932 C8.68843373,12.9991932 9.06626506,13.3759205 9.06626506,13.8401023 L9.06626506,30.7285 C9.06626506,31.1926818 8.68843373,31.5689886 8.22289157,31.5689886 Z M5.69277108,29.8871705 L7.37951807,29.8871705 L7.37951807,14.6810114 L5.69277108,14.6810114 L5.69277108,29.8871705 Z M15.3915663,31.5689886 L12.0180723,31.5689886 C11.5525301,31.5689886 11.1746988,31.1922614 11.1746988,30.7280795 L11.1746988,13.8401023 C11.1746988,13.3759205 11.5525301,12.9991932 12.0180723,12.9991932 L15.3915663,12.9991932 C15.8571084,12.9991932 16.2349398,13.3759205 16.2349398,13.8401023 L16.2349398,30.7285 C16.2349398,31.1926818 15.8571084,31.5689886 15.3915663,31.5689886 Z M12.8614458,29.8871705 L14.5481928,29.8871705 L14.5481928,14.6810114 L12.8614458,14.6810114 L12.8614458,29.8871705 Z M22.560241,31.5689886 L19.186747,31.5689886 C18.7212048,31.5689886 18.3433735,31.1922614 18.3433735,30.7280795 L18.3433735,13.8401023 C18.3433735,13.3759205 18.7212048,12.9991932 19.186747,12.9991932 L22.560241,12.9991932 C23.0257831,12.9991932 23.4036145,13.3759205 23.4036145,13.8401023 L23.4036145,30.7285 C23.4036145,31.1926818 23.0257831,31.5689886 22.560241,31.5689886 Z M20.0301205,29.8871705 L21.7168675,29.8871705 L21.7168675,14.6810114 L20.0301205,14.6810114 L20.0301205,29.8871705 Z M29.7289157,31.5689886 L26.3554217,31.5689886 C25.8898795,31.5689886 25.5120482,31.1922614 25.5120482,30.7280795 L25.5120482,13.8401023 C25.5120482,13.3759205 25.8898795,12.9991932 26.3554217,12.9991932 L29.7289157,12.9991932 C30.1944578,12.9991932 30.5722892,13.3759205 30.5722892,13.8401023 L30.5722892,30.7285 C30.5722892,31.1926818 30.1944578,31.5689886 29.7289157,31.5689886 Z M27.1987952,29.8871705 L28.8855422,29.8871705 L28.8855422,14.6810114 L27.1987952,14.6810114 L27.1987952,29.8871705 Z M32.8915663,33.2508068 C32.8915663,32.786625 32.5137349,32.4098977 32.0481928,32.4098977 L2.53012048,32.4098977 C2.06457831,32.4098977 1.68674699,32.786625 1.68674699,33.2508068 C1.68674699,33.7149886 2.06457831,34.0917159 2.53012048,34.0917159 L32.0481928,34.0917159 C32.5137349,34.0917159 32.8915663,33.7154091 32.8915663,33.2508068 Z M34.5783133,35.7735341 C34.5783133,35.3093523 34.2004819,34.932625 33.7349398,34.932625 L0.843373494,34.932625 C0.377831325,34.932625 0,35.3093523 0,35.7735341 C0,36.2377159 0.377831325,36.6144432 0.843373494,36.6144432 L33.7349398,36.6144432 C34.2004819,36.6144432 34.5783133,36.2381364 34.5783133,35.7735341 Z" id="Shape"></path>
        </g>
    </g>
</svg>