<?xml version="1.0" encoding="UTF-8"?>
<svg width="200px" height="50px" viewBox="0 0 200 50" version="1.1" xmlns="http://www.w3.org/2000/svg" xmlns:xlink="http://www.w3.org/1999/xlink">
    <!-- Generator: Sketch 44.1 (41455) - http://www.bohemiancoding.com/sketch -->
    <title>Logo</title>
    <desc>Created with Sketch.</desc>
    <defs></defs>
    <g id="Symbols" stroke="none" stroke-width="1" fill="none" fill-rule="evenodd">
        <g id="Logo" fill="#DDBC88">
            <path d="M25.0536645,48.3900644 C22.9479604,47.6540902 20.2596504,46.5910322 16.9886538,45.2008586 L14.0447715,43.9129102 C11.8368488,46.2434952 9.46541184,47.4087703 6.93038945,47.4087703 C5.58110334,47.4087703 4.37494143,47.102119 3.31186753,46.4888071 C2.24879362,45.8754952 1.43105673,45.1293103 0.858632321,44.25023 C0.286207912,43.3711496 4.51194637e-13,42.5227476 4.51194637e-13,41.7049985 C4.51194637e-13,40.8054744 0.398646734,40.0695112 1.19595216,39.4970868 C1.99325759,38.9246624 3.27097148,38.6384545 5.02913217,38.6384545 C7.0326176,38.6384545 9.60848881,39.0473229 12.7568231,39.8650721 C13.6972346,38.1477988 14.6069669,36.1034566 15.4860472,33.7319841 C16.3651276,31.3605115 17.377077,28.3553284 18.5219258,24.7163447 L20.0551978,19.9938669 C18.0517124,19.3396676 16.4877906,18.3992702 15.3633855,17.1726464 C14.2389804,15.9460227 13.6767863,14.6580871 13.6767863,13.308801 C13.6767863,12.0004023 14.1572067,10.7942404 15.1180619,9.69027906 C16.0789172,8.58631769 17.3157443,8.03434529 18.8285802,8.03434529 C18.010831,9.0974192 17.6019626,10.4875719 17.6019626,12.2048451 C17.6019626,13.4723563 17.8983922,14.5865228 18.4912603,15.5473781 C19.0841285,16.5082334 19.8507568,17.2748617 20.7911684,17.8472861 C22.631104,12.2865918 24.5936725,7.92192119 26.6789328,4.75314321 C28.7641932,1.58436523 31.319621,-4.26325641e-14 34.3452929,-4.26325641e-14 C36.0625661,-4.26325641e-14 37.6264879,0.521307268 39.0371052,1.56393744 C40.4477225,2.60656762 41.1530205,4.29314995 41.1530205,6.62373505 C41.1530205,8.7089954 40.570383,10.845333 39.4050905,13.032812 C38.2397979,15.220291 36.430555,17.0704207 33.9773076,18.5832567 C31.5240601,20.0960926 28.4779902,20.8524992 24.8390064,20.8524992 C23.367058,25.3092321 21.9769052,29.1730389 20.6685066,32.4440356 C19.3601079,35.7150322 17.9495118,38.515781 16.4366759,40.8463661 C20.1165471,41.9503275 23.2546124,42.819173 25.850966,43.4529285 C28.4473195,44.0866841 30.7267611,44.4035572 32.6893591,44.4035572 C33.6297706,44.4035572 34.5190595,44.3013401 35.3572524,44.0969028 C36.1954453,43.8924655 37.1051776,43.5449273 38.0864765,43.0542778 C37.2687274,45.303088 36.2669997,46.9385618 35.0812634,47.9607482 C33.8955271,48.9829347 32.4440442,49.4940202 30.7267709,49.4940202 C29.0503852,49.4940202 27.1593686,49.1260386 25.0536645,48.3900644 Z M31.4014106,16.2220178 C33.1186838,14.6478507 34.457728,12.8079427 35.4185833,10.7022386 C36.3794385,8.5965345 36.8598589,6.74640478 36.8598589,5.15179393 C36.8598589,3.31185833 36.185226,2.39190432 34.8359399,2.39190432 C33.2004416,2.39190432 31.6876283,3.77183533 30.2974548,6.53173873 C28.9072812,9.29164213 27.3126943,13.3905483 25.5136461,18.8285802 C27.7215688,18.6650304 29.6841374,17.7961849 31.4014106,16.2220178 Z M8.67831953,44.5568844 C8.04456394,44.9453152 7.25749218,45.1395278 6.31708065,45.1395278 C5.21311929,45.1395278 4.25227844,44.883985 3.43452929,44.3728918 C2.61678013,43.8617985 2.20791168,43.2587176 2.20791168,42.5636308 C2.20791168,42.1138688 2.39190248,41.7561089 2.7598896,41.4903404 C3.12787672,41.2245719 3.67984913,41.0916897 4.41582337,41.0916897 C5.80599693,41.0916897 7.95255627,41.6232186 10.8555658,42.6862925 C10.0378166,43.5449292 9.31207513,44.1684535 8.67831953,44.5568844 Z M42.440969,44.7715425 C41.009908,43.3813689 40.2943882,41.6027912 40.2943882,39.4357559 C40.2943882,37.0642833 41.0916817,34.4986339 42.6862925,31.7387305 C44.2809034,28.978827 46.3252456,26.6687203 48.8193806,24.808341 C51.3135155,22.9479617 53.7667262,22.017786 56.1790862,22.017786 C57.4465974,22.017786 58.5096553,22.334659 59.3682919,22.9684146 C60.2269285,23.6021702 60.6562404,24.6550064 60.6562404,26.1269549 C60.6562404,28.0895529 59.8998338,29.9396826 58.3869979,31.6773996 C56.8741619,33.4151165 54.9218151,34.8359344 52.5298988,35.9398957 C50.1379825,37.0438571 47.6949936,37.7389335 45.2008586,38.0251457 C45.1190837,38.4340202 45.0781969,38.904219 45.0781969,39.4357559 C45.0781969,40.4988298 45.3746265,41.5618878 45.9674946,42.6249617 C46.5603628,43.6880356 47.8380767,44.2195646 49.8006746,44.2195646 C52.2948096,44.2195646 54.8400156,43.2076151 57.4363692,41.183686 C60.0327228,39.1597568 62.1281736,36.6349942 63.7227844,33.6093223 L64.949402,34.5906164 C63.3139037,38.2704876 60.9731319,41.2347838 57.9270163,43.483594 C54.8809006,45.7324042 51.7223919,46.8567924 48.4513953,46.8567924 C45.8754854,46.8567924 43.8720301,46.161716 42.440969,44.7715425 Z M175.453146,40.8363488 C175.02801,41.4158649 174.593306,41.9507379 174.149034,42.440969 C172.37043,44.403567 170.336309,45.3848513 168.046611,45.3848513 C166.492888,45.3848513 165.286726,44.9964262 164.42809,44.2195646 C163.569453,43.4427029 163.140141,42.4205317 163.140141,41.1530205 C163.140141,40.6214836 163.232136,40.0081809 163.41613,39.3130941 C163.600124,38.6180074 163.794336,37.922931 163.998773,37.2278442 C164.571198,35.3470212 164.857406,33.9568684 164.857406,33.0573444 C164.857406,32.2395952 164.652971,31.6365143 164.244097,31.2480834 C163.835222,30.8596526 163.324137,30.66544 162.710825,30.66544 C160.54379,30.66544 158.356343,32.0249276 156.148421,34.7439436 C153.940498,37.4629595 151.569061,40.9076762 149.034039,45.0781969 C147.275878,45.0781969 145.947056,44.4853376 145.047531,43.2996013 L145.599509,41.7663293 C145.724133,41.4642751 145.845538,41.1662584 145.963723,40.8722794 C144.655647,42.3863282 143.256527,43.5940762 141.766329,44.4955535 C140.110387,45.4972962 138.526022,45.9981601 137.013186,45.9981601 C135.214138,45.9981601 134.059085,45.3746357 133.547991,44.1275682 C133.036898,42.8805008 132.781355,41.2143619 132.781355,39.1291015 C131.391182,41.2552493 130.082803,42.9316099 128.856179,44.1582337 C127.629555,45.3848574 126.34162,45.9981601 124.992334,45.9981601 C123.643048,45.9981601 122.518659,45.364414 121.619135,44.0969028 C120.719611,42.8293916 120.269856,41.3370218 120.269856,39.6197485 C120.269856,38.1478001 120.596951,36.3078921 121.25115,34.0999693 C121.905349,31.8920466 122.671978,29.9703649 123.551058,28.3348666 C124.430138,26.6993683 125.196767,25.8816314 125.850966,25.8816314 C126.137178,25.8816314 126.576712,26.0349571 127.16958,26.341613 C127.762448,26.6482689 128.283755,27.0264722 128.733517,27.4762343 C127.874881,28.7437455 126.985592,30.5632101 126.065624,32.9346826 C125.145656,35.3061552 124.685679,37.3504974 124.685679,39.0677706 C124.685679,39.8446323 124.798118,40.6521475 125.022999,41.4903404 C125.24788,42.3285333 125.748744,42.7476234 126.525606,42.7476234 C128.038442,42.7476234 129.847684,41.0610411 131.953389,37.6878258 C134.059093,34.3146105 135.868335,30.8903373 137.381171,27.4149034 C139.834419,27.823778 141.061024,28.5188543 141.061024,29.5001533 C141.061024,29.5819282 140.815703,30.1747875 140.325054,31.2787489 C139.466417,33.2822343 138.730454,35.1425857 138.117142,36.8598589 C137.50383,38.5771322 137.197179,40.069502 137.197179,41.3370132 C137.197179,42.7680742 137.749151,43.483594 138.853113,43.483594 C139.711749,43.483594 140.744142,43.0849473 141.950322,42.2876418 C143.156502,41.4903364 144.393329,40.3455048 145.66084,38.8531125 C146.430832,37.9465093 147.140462,36.9531543 147.789737,35.8730358 C148.741936,32.9062773 149.218031,30.5366703 149.218031,28.7641828 C149.545131,28.3961956 150.01533,28.0588792 150.628642,27.7522232 C151.241953,27.4455673 151.834813,27.2922416 152.407237,27.2922416 C153.102324,27.2922416 153.633853,27.455789 154.00184,27.7828887 C154.369827,28.1099883 154.553818,28.5597436 154.553818,29.132168 C154.553818,30.2361294 154.20628,32.055594 153.511193,34.5906164 C155.351128,32.1373689 157.262588,30.1339135 159.24563,28.5801901 C161.228672,27.0264667 163.181019,26.2496167 165.102729,26.2496167 C166.738228,26.2496167 168.00572,26.8118108 168.905244,27.9362159 C169.804768,29.060621 170.254523,30.3996651 170.254523,31.9533885 C170.254523,32.8529126 170.142084,33.7115363 169.917203,34.5292855 C169.692322,35.3470347 169.355006,36.2669887 168.905244,37.2891751 C168.210157,39.0064483 167.862619,40.2943839 167.862619,41.1530205 C167.862619,41.7663324 168.005723,42.2160877 168.291935,42.5022999 C168.578147,42.7885121 168.925685,42.9316161 169.33456,42.9316161 C170.683846,42.9316161 172.145551,42.0014404 173.719718,40.141061 C174.321716,39.4296089 174.901287,38.6688293 175.458433,37.8587183 C175.730079,35.9375543 176.489561,33.8975706 177.736891,31.7387305 C179.331501,28.978827 181.375844,26.6687203 183.869979,24.808341 C186.364113,22.9479617 188.817324,22.017786 191.229684,22.017786 C192.497195,22.017786 193.560253,22.334659 194.41889,22.9684146 C195.277527,23.6021702 195.706838,24.6550064 195.706838,26.1269549 C195.706838,28.0895529 194.950432,29.9396826 193.437596,31.6773996 C191.92476,33.4151165 189.972413,34.8359344 187.580497,35.9398957 C185.18858,37.0438571 182.745592,37.7389335 180.251457,38.0251457 C180.169682,38.4340202 180.128795,38.904219 180.128795,39.4357559 C180.128795,40.4988298 180.425224,41.5618878 181.018093,42.6249617 C181.610961,43.6880356 182.888675,44.2195646 184.851273,44.2195646 C187.345408,44.2195646 189.890614,43.2076151 192.486967,41.183686 C195.083321,39.1597568 197.178772,36.6349942 198.773382,33.6093223 L200,34.5906164 C198.364502,38.2704876 196.02373,41.2347838 192.977614,43.483594 C189.931499,45.7324042 186.77299,46.8567924 183.501993,46.8567924 C180.926083,46.8567924 178.922628,46.161716 177.491567,44.7715425 C176.381738,43.6934231 175.702268,42.3817002 175.453146,40.8363488 Z M50.8126342,33.9773076 C48.9931423,34.999494 47.3474468,35.5923533 45.8754983,35.7559031 C46.4479227,34.0386299 47.3269899,32.3213824 48.5127262,30.6041092 C49.6984624,28.8868359 50.9966197,27.4660181 52.407237,26.341613 C53.8178543,25.2172079 55.1160117,24.6550138 56.3017479,24.6550138 C56.6697351,24.6550138 56.9354995,24.7367875 57.0990494,24.9003373 C57.2625992,25.0638872 57.3443729,25.3705385 57.3443729,25.8203005 C57.3443729,27.2513615 56.7106268,28.7130662 55.4431156,30.2054584 C54.1756044,31.6978507 52.632126,32.9551211 50.8126342,33.9773076 Z M85.6485741,48.850046 C84.4423941,48.4207277 83.3895578,47.6132125 82.4900337,46.4274762 C82.694471,44.6284281 83.5019862,41.2961503 84.9126035,36.4305428 C86.3232208,31.5649353 87.8564775,26.5767403 89.5124195,21.465808 C91.1683615,16.3548758 92.3234149,12.9408243 92.9776142,11.2235511 C93.4682637,9.91515241 94.1531184,8.59655167 95.0321987,7.26770929 C95.9112791,5.93886691 96.9641153,5.27445569 98.190739,5.27445569 C98.8858258,5.27445569 99.6626759,5.5606636 100.521312,6.13308801 C98.068065,11.7346697 95.6046326,18.4196688 93.1309414,26.1882858 C90.6572502,33.9569028 88.7662337,40.8463361 87.457835,46.8567924 C88.1529218,47.1021171 89.1750929,47.2247777 90.524379,47.2247777 C94.7357872,47.2247777 98.7120328,45.5995256 102.453235,42.3489727 C106.194438,39.0984198 109.189399,35.0710656 111.438209,30.2667893 C113.687019,25.462513 114.811408,20.8934082 114.811408,16.5593376 C114.811408,11.8163925 113.625689,8.28990218 111.254216,5.97976081 C108.882744,3.66961944 105.714013,2.51456608 101.74793,2.51456608 C99.0902453,2.51456608 96.6983649,2.99498651 94.5722171,3.95584177 C92.4460693,4.91669703 90.7799304,6.23529776 89.5737504,7.91168353 C88.3675704,9.5880693 87.7644894,11.4688642 87.7644894,13.5541245 C87.7644894,14.6580859 87.9484802,15.6393701 88.3164673,16.4980067 C86.6400816,16.4980067 85.4032545,16.1402469 84.6059491,15.4247163 C83.8086437,14.7091858 83.4099969,13.7585667 83.4099969,12.5728304 C83.4099969,10.6511199 84.3299509,8.70899479 86.1698865,6.74639681 C88.0098221,4.78379883 90.4936979,3.16876848 93.6215885,1.90125728 C96.749479,0.63374609 100.132865,-4.26325641e-14 103.771849,-4.26325641e-14 C109.414318,-4.26325641e-14 113.574555,1.57414351 116.252683,4.72247777 C118.930812,7.87081202 120.269856,12.0208267 120.269856,17.1726464 C120.269856,22.8560031 118.797929,28.1815146 115.854033,33.1493407 C112.910136,38.1171668 109.087216,42.0831907 104.385158,45.0475314 C99.6831003,48.0118721 94.8584526,49.4940202 89.9110702,49.4940202 C88.2755719,49.4940202 86.8547541,49.2793643 85.6485741,48.850046 Z M185.863232,33.9773076 C187.682724,32.9551211 189.226202,31.6978507 190.493714,30.2054584 C191.761225,28.7130662 192.394971,27.2513615 192.394971,25.8203005 C192.394971,25.3705385 192.313197,25.0638872 192.149647,24.9003373 C191.986098,24.7367875 191.720333,24.6550138 191.352346,24.6550138 C190.16661,24.6550138 188.868452,25.2172079 187.457835,26.341613 C186.047218,27.4660181 184.74906,28.8868359 183.563324,30.6041092 C182.377588,32.3213824 181.498521,34.0386299 180.926096,35.7559031 C182.398045,35.5923533 184.04374,34.999494 185.863232,33.9773076 Z" id="Le-Dune"></path>
        </g>
    </g>
</svg>